<svg xmlns="http://www.w3.org/2000/svg" style="width: 100%; height:100%;" viewBox="0 0 512 512" ><g
                id="Flat"
                transform="matrix(0.97702952,0,0,0.87580115,26.014415,-4.4216373)">
               <path
                  d="m 376,307.13 v 75.9 A 40.9722,40.9722 0 0 1 335.03,424 H 64.97 A 40.97228,40.97228 0 0 1 24,383.03 v -9.74 A 799.92513,799.92513 0 0 1 95.71,42.25 L 104,24 h 193.45 a 39.99655,39.99655 0 0 1 38.59,29.48 l 11.77,43.16 A 799.96461,799.96461 0 0 1 376,307.13 Z"
                  fill="#eedc9a"
                  id="path2" />
               <path
                  d="M 347.81,96.64 336.04,53.48 A 40.0032,40.0032 0 0 0 304,24.539 V 24 h -72 v 64 h 36.61786 A 799.93459,799.93459 0 0 0 216,373.29 v 9.74 A 40.97056,40.97056 0 0 0 256.97,424 h 78.06 A 40.97056,40.97056 0 0 0 376,383.03 v -75.9 A 799.96461,799.96461 0 0 0 347.81,96.64 Z"
                  fill="#e88604"
                  id="path4" />
               <path
                  d="m 256,96 a 24,24 0 0 0 24,24 H 64 A 24,24 0 0 1 40,96 V 64 A 40,40 0 0 1 80,24 h 216 a 40,40 0 0 0 -40,40 z"
                  fill="#ece9c0"
                  id="path6" />
               <path
                  d="m 256,72 h 48 v 24 a 24,24 0 0 1 -24,24 24,24 0 0 1 -24,-24 z"
                  fill="#eebe33"
                  id="path8" />
               <path
                  d="m 104,280 a 127.93082,127.93082 0 0 0 8.6987,46.36807 L 140.165,396.9957 A 80,80 0 0 0 214.72537,448 H 377.27463 A 80,80 0 0 0 451.835,396.9957 l 27.46629,-70.62761 A 127.93082,127.93082 0 0 0 488,280 Z"
                  fill="#379ec3"
                  id="path10" />
               <path
                  d="m 488,280 c 0,14.40991 -18.67,27.55005 -49.35,37.48 C 403.51,328.85 352.62,336 296,336 239.38,336 188.49,328.85 153.35,317.48 122.67,307.55005 104,294.40991 104,280 c 0,-30.93 85.96,-56 192,-56 106.04,0 192,25.07 192,56 z"
                  fill="#8acce7"
                  id="path12" />
               <path
                  d="m 440,312 a 12.21446,12.21446 0 0 1 -1.35,5.48 C 403.51,328.85 352.62,336 296,336 239.38,336 188.49,328.85 153.35,317.48 A 12.21446,12.21446 0 0 1 152,312 c 0,-22.09009 64.47,-40 144,-40 79.53,0 144,17.90991 144,40 z"
                  fill="#eedc9a"
                  id="path14" />
               <path
                  d="m 402.564,199.20508 -2.61279,-23.51319 -4.97583,0.55274 -0.35766,-3.21924 -4.97541,0.55273 -0.3576,-3.21923 -12.57782,1.39727 -2.4422,-10.99054 A 162.29983,162.29983 0 0 0 263.8599,246.96729 l -23.01513,46.03027 14.31054,7.15527 23.01514,-46.03027 a 146.281,146.281 0 0 1 89.418,-75.09107 c -26.80243,18.88935 -51.33783,47.95374 -68.47754,81.47046 l -23.55671,45.74414 14.22461,7.3252 23.56689,-45.76416 c 16.42426,-32.11737 39.93946,-59.72186 65.39478,-77.045 -5.305,10.02912 -11.24079,21.10914 -17.48169,32.75745 q -13.05541,24.36621 -26.896,50.51758 l -18.13818,34.21582 14.13672,7.49414 18.1499,-34.23877 q 13.76367,-26.16723 26.85059,-50.43262 c 4.14373,-7.73364 8.14868,-15.20959 11.93432,-22.31244 a 146.15543,146.15543 0 0 1 -17.67993,78.80951 l -11.23437,20.5962 14.04589,7.6621 11.23438,-20.59667 A 162.18024,162.18024 0 0 0 402.564,199.20508 Z"
                  fill="#c4d4e0"
                  id="path16" />
               <path
                  d="M 364.26106,163.93644 427.93669,59.74 a 23.323,23.323 0 0 1 31.90069,-7.83753 23.323,23.323 0 0 1 7.90152,32.16111 L 404.06331,188.26 a 23.323,23.323 0 0 1 -31.90069,7.83753 23.323,23.323 0 0 1 -7.90156,-32.16109 z"
                  fill="#a6b2bc"
                  id="path18" />
               <path
                  d="m 328,424 64.09859,-5.82714 A 21.91712,21.91712 0 0 1 416,440 21.91712,21.91712 0 0 1 392.09859,461.82712 L 328,456 Z"
                  fill="#966342"
                  id="path20" />
               <rect
                  fill="#723024"
                  height="96"
                  rx="48"
                  width="328"
                  x="56"
                  y="392"
                  id="rect22" />
               <circle
                  cx="104"
                  cy="440"
                  fill="#984e3c"
                  r="48"
                  id="circle24" />
               <path
                  d="m 96.06572,457.44857 -48.16431,4.37857 A 21.91712,21.91712 0 0 1 24,440 21.91712,21.91712 0 0 1 47.90141,418.17288 l 48.16431,4.37857 A 17.5205,17.5205 0 0 1 112,440 17.5205,17.5205 0 0 1 96.06572,457.44857 Z"
                  fill="#ad7d4d"
                  id="path26" />
             </g><text
     xml:space="preserve"
     id="text19"
     style="font-style:normal;font-weight:normal;font-size:40px;line-height:1.25;font-family:sans-serif;white-space:pre;shape-inside:url(#rect21);fill:#000000;fill-opacity:1;stroke:none;"
     transform="matrix(1.2796844,0.0302722,0,1,-4.3919307,2.0967559)"><tspan
       x="15.703125"
       y="478.79009"><tspan
         style="fill:#241c1c">      RECIPEE APP</tspan></tspan></text></svg>