<?xml version="1.0" encoding="UTF-8" standalone="no"?>
<svg
   xmlns:dc="http://purl.org/dc/elements/1.1/"
   xmlns:cc="http://creativecommons.org/ns#"
   xmlns:rdf="http://www.w3.org/1999/02/22-rdf-syntax-ns#"
   xmlns:svg="http://www.w3.org/2000/svg"
   xmlns="http://www.w3.org/2000/svg"
   xmlns:sodipodi="http://sodipodi.sourceforge.net/DTD/sodipodi-0.dtd"
   xmlns:inkscape="http://www.inkscape.org/namespaces/inkscape"
   id="Capa_1"
   enable-background="new 0 0 512 512"
   height="512"
   viewBox="0 0 512 512"
   width="512"
   version="1.1"
   sodipodi:docname="abc2.svg"
   inkscape:version="1.0.1 (3bc2e813f5, 2020-09-07)">
   />
<g
     id="g14"
     transform="matrix(0.7103418,0,0,0.59201182,106.43065,127.12693)"
     style="fill:#00170b;fill-opacity:0.307692">
    <g
       id="g12"
       style="fill:#00170b;fill-opacity:0.307692">
      <path
         d="m 451.531,281.889 h 18.07 c 23.379,0 42.399,-19.021 42.399,-42.4 0,-23.38 -19.021,-42.4 -42.399,-42.4 H 447.435 177.281 L 110.758,47.189 C 103.398,30.566 84.682,22.934 68.141,29.82 51.909,36.594 44.13,55.188 50.427,72.145 L 96.713,197.088 H 64.537 42.399 C 19.021,197.088 0,216.109 0,239.489 c 0,23.379 19.021,42.4 42.399,42.4 h 18.045 c 10.936,43.993 36.64,83.527 73.438,111.712 -8.171,12.373 -13.327,25.168 -15.14,37.716 H 61.59 c -21.707,0 -39.366,17.647 -39.366,39.339 v 19.105 c 0,5.523 4.478,10 10,10 h 447.524 c 5.522,0 10,-4.477 10,-10 v -19.105 c 0,-21.691 -17.646,-39.339 -39.338,-39.339 h -57.155 c -1.815,-12.541 -6.975,-25.331 -15.151,-37.706 36.794,-28.179 62.494,-67.718 73.427,-111.722 z M 492,239.489 c 0,12.352 -10.048,22.4 -22.399,22.4 h -14.189 c 1.323,-9.281 2.023,-18.702 2.023,-28.211 v -16.589 h 12.166 C 481.952,217.088 492,227.137 492,239.489 Z M 69.178,65.19 c -2.547,-6.86 0.381,-14.289 6.657,-16.909 6.412,-2.668 13.716,0.412 16.639,7.013 L 155.4,197.088 H 118.04 Z M 20,239.489 c 0,-12.352 10.048,-22.4 22.399,-22.4 h 12.138 v 16.589 c 0,9.509 0.7,18.93 2.024,28.211 H 42.399 C 30.048,261.889 20,251.84 20,239.489 Z m 61.131,42.4 h 129.955 c 5.522,0 10,-4.477 10,-10 0,-5.523 -4.478,-10 -10,-10 H 76.773 C 75.301,252.627 74.537,243.2 74.537,233.678 v -16.589 h 362.897 v 16.589 c 0,9.523 -0.764,18.95 -2.234,28.211 H 300.886 c -5.522,0 -10,4.477 -10,10 0,5.523 4.478,10 10,10 h 129.959 c -10.495,37.754 -33.148,71.57 -65.028,95.942 -2.194,-2.432 -4.501,-4.837 -6.933,-7.204 -3.883,-3.779 -10.068,-3.779 -13.951,0 -10.644,10.362 -19.037,21.406 -24.942,32.651 -5.905,-11.244 -14.298,-22.288 -24.942,-32.651 -3.883,-3.779 -10.068,-3.779 -13.951,0 -10.649,10.367 -19.046,21.411 -24.956,32.652 -5.91,-11.24 -14.307,-22.285 -24.956,-32.652 -3.883,-3.779 -10.068,-3.779 -13.951,0 -10.732,10.448 -19.173,21.59 -25.085,32.931 -5.919,-11.346 -14.369,-22.489 -25.115,-32.936 -3.886,-3.776 -10.066,-3.772 -13.946,0.005 -2.427,2.363 -4.73,4.764 -6.921,7.192 C 114.284,353.441 91.63,319.63 81.131,281.889 Z m 227.943,149.428 h -42.028 c 2.581,-12.755 9.865,-26.323 21.026,-39.026 11.149,12.695 18.426,26.263 21.002,39.026 z m -63.837,0 h -42.028 c 2.577,-12.763 9.853,-26.331 21.002,-39.026 11.161,12.703 18.445,26.271 21.026,39.026 z m -85.169,-39.032 c 11.16,12.691 18.445,26.262 21.023,39.031 h -42.029 c 2.578,-12.764 9.856,-26.334 21.006,-39.031 z m 309.68,78.371 v 9.105 H 42.224 v -9.105 c 0,-10.664 8.688,-19.339 19.366,-19.339 h 388.82 c 10.663,0 19.338,8.675 19.338,19.339 z m -138.84,-39.339 c 2.576,-12.763 9.852,-26.332 21.001,-39.026 11.161,12.703 18.445,26.271 21.026,39.026 z"
         id="path2"
         style="fill:#00170b;fill-opacity:0.307692" />
      <path
         d="m 217.606,153.665 c 1.945,2.778 5.048,4.265 8.2,4.265 1.98,0 3.981,-0.587 5.728,-1.81 4.523,-3.168 5.623,-9.403 2.455,-13.928 -5.85,-8.353 -5.85,-23.006 0.007,-31.369 10.649,-15.246 10.646,-39.107 -0.007,-54.322 -3.168,-4.523 -9.403,-5.624 -13.927,-2.456 -4.524,3.167 -5.624,9.403 -2.456,13.927 5.847,8.35 5.844,23.022 0,31.389 -10.662,15.225 -10.662,39.078 0,54.304 z"
         id="path4"
         style="fill:#00170b;fill-opacity:0.307692" />
      <path
         d="m 291.05,113.667 c 1.945,2.779 5.047,4.266 8.2,4.266 1.98,0 3.981,-0.587 5.727,-1.809 4.524,-3.168 5.624,-9.403 2.456,-13.927 -5.849,-8.354 -5.849,-23.008 0.006,-31.37 10.651,-15.247 10.648,-39.108 -0.006,-54.323 -3.167,-4.524 -9.402,-5.623 -13.928,-2.456 -4.523,3.168 -5.623,9.403 -2.455,13.927 5.848,8.351 5.845,23.022 0,31.389 -10.66,15.225 -10.66,39.078 0,54.303 z"
         id="path6"
         style="fill:#00170b;fill-opacity:0.307692" />
      <path
         d="m 364.522,153.664 c 1.945,2.778 5.047,4.265 8.2,4.265 1.98,0 3.981,-0.587 5.727,-1.81 4.524,-3.167 5.624,-9.403 2.456,-13.927 -5.849,-8.353 -5.849,-23.007 0.007,-31.369 10.65,-15.247 10.647,-39.108 -0.007,-54.323 -3.168,-4.524 -9.402,-5.623 -13.928,-2.456 -4.523,3.168 -5.623,9.403 -2.455,13.927 5.848,8.351 5.845,23.022 0,31.389 -10.66,15.226 -10.66,39.079 0,54.304 z"
         id="path8"
         style="fill:#00170b;fill-opacity:0.307692" />
      <path
         d="m 255.985,281.889 h 0.058 c 5.522,0 9.972,-4.477 9.972,-10 0,-5.523 -4.507,-10 -10.029,-10 -5.522,0 -10,4.477 -10,10 0,5.523 4.477,10 9.999,10 z"
         id="path10"
         style="fill:#00170b;fill-opacity:0.307692" />
    </g>
  </g>
</svg>
